<?xml version="1.0" standalone="no"?>
<!DOCTYPE svg PUBLIC "-//W3C//DTD SVG 20010904//EN"
 "http://www.w3.org/TR/2001/REC-SVG-20010904/DTD/svg10.dtd">
<svg version="1.0" xmlns="http://www.w3.org/2000/svg"
 width="300.000000pt" height="300.000000pt" viewBox="0 0 300.000000 300.000000"
 preserveAspectRatio="xMidYMid meet">
<metadata>
Created by potrace 1.10, written by Peter Selinger 2001-2011
</metadata>
<g transform="translate(0.000000,300.000000) scale(0.050000,-0.050000)"
fill="#000000" stroke="none">
<path d="M2766 5839 c-2417 -201 -3492 -3134 -1777 -4850 907 -906 2352 -1110
3399 -479 l112 67 0 -66 c0 -154 122 -113 270 90 120 164 97 161 379 49 245
-97 275 -103 306 -65 12 14 80 381 153 815 72 435 150 874 172 976 265 1209
-271 2446 -1330 3074 -501 296 -1109 437 -1684 389z m-175 -200 c66 -129 -8
-301 -113 -262 -81 30 -342 -39 -561 -148 -73 -37 -138 -61 -145 -55 -7 7 -12
3 -12 -8 0 -24 -158 -133 -194 -133 -13 0 -20 -7 -14 -16 6 -9 2 -17 -8 -17
-10 0 -59 -36 -109 -79 -49 -44 -97 -73 -106 -65 -8 8 -10 4 -3 -8 12 -22 -34
-78 -76 -92 -10 -3 -21 -19 -23 -34 -2 -15 -12 -33 -21 -40 -9 -7 -19 -30 -23
-52 -21 -118 -232 -69 -278 65 -22 64 -4 119 33 96 12 -7 22 -4 22 8 0 11 10
21 23 21 13 0 61 31 107 69 47 38 92 63 101 55 8 -8 9 -3 2 9 -16 29 83 112
112 94 12 -8 15 -4 8 9 -24 38 512 384 594 384 18 0 33 8 33 17 0 13 143 72
180 73 6 0 19 6 30 13 11 6 80 31 153 55 73 24 148 61 167 82 42 46 82 33 121
-41z m639 0 c500 -47 1021 -244 1387 -523 216 -166 521 -492 506 -543 -3 -12
0 -17 8 -9 13 13 89 -65 89 -91 0 -5 40 -77 89 -160 87 -147 188 -374 228
-513 11 -38 31 -106 45 -150 36 -119 48 -1084 14 -1148 -26 -48 -134 -123
-158 -110 -7 4 -7 54 0 112 22 195 14 1006 -11 1058 -54 111 -83 234 -61 256
20 20 17 24 -19 21 -17 -1 -66 138 -67 187 0 20 -7 32 -16 26 -9 -5 -45 48
-80 119 -35 71 -74 129 -87 129 -13 0 -18 6 -11 13 7 7 -5 37 -27 68 -21 30
-39 66 -39 80 0 14 -134 158 -298 319 -533 525 -1012 737 -1672 741 -132 1
-253 8 -270 15 -50 23 -47 82 4 93 25 5 64 13 86 18 70 15 135 13 360 -8z
m215 -311 c1419 -267 2324 -1866 1781 -3145 -55 -129 -369 -292 -370 -193 0 9
15 24 32 34 18 10 32 35 32 56 0 22 21 87 48 146 175 397 176 1130 3 1546 -16
38 -31 75 -33 83 -5 24 -121 230 -163 290 -21 30 -33 55 -26 55 6 0 -5 16 -24
36 -19 20 -58 65 -87 101 -29 35 -118 132 -197 216 -91 96 -136 157 -122 166
12 8 28 50 34 93 l12 78 -73 -70 c-105 -99 -227 -100 -312 -4 -31 37 -65 67
-74 67 -9 1 -52 16 -96 34 -44 18 -87 30 -95 28 -8 -3 -15 5 -15 16 0 12 -10
15 -22 8 -12 -8 -29 -4 -36 8 -8 13 -59 32 -113 43 -54 11 -148 30 -209 42
-132 27 -704 16 -743 -14 -15 -11 -60 -20 -100 -19 -40 0 -70 -4 -66 -10 4 -7
-58 -28 -137 -48 -176 -45 -243 -71 -345 -136 -44 -27 -86 -50 -94 -52 -60 -9
-333 -256 -523 -474 -77 -88 -144 -159 -150 -160 -7 0 -30 -11 -52 -25 -35
-22 -29 -25 51 -20 l91 6 -48 -70 c-51 -76 -61 -404 -13 -436 12 -8 28 -30 35
-49 7 -19 27 -35 43 -35 17 0 31 -8 31 -18 0 -43 199 -76 224 -37 32 49 59
-29 42 -125 -22 -130 -17 -573 7 -690 17 -81 20 -48 11 180 -15 436 25 663 98
548 15 -24 17 -24 18 0 0 16 7 22 15 14 8 -9 16 -174 18 -369 2 -358 42 -566
124 -648 13 -13 23 -36 23 -52 0 -16 84 -113 187 -216 103 -102 181 -192 175
-198 -7 -7 -3 -10 8 -8 11 3 91 -28 177 -69 336 -160 767 -177 1035 -41 51 26
100 41 109 33 8 -8 10 -4 3 8 -7 12 0 39 16 60 16 21 29 54 29 74 1 23 10 31
26 22 20 -11 20 -8 0 13 -14 15 -26 50 -27 78 -2 45 -4 43 -17 -13 -88 -368
-862 -391 -1335 -39 -376 279 -521 722 -405 1241 33 144 -12 242 -137 306
l-86 43 89 40 c86 38 304 236 296 269 -2 10 5 12 15 5 11 -6 27 0 36 14 9 14
74 79 146 145 118 110 193 209 196 260 2 63 437 151 680 137 225 -13 251 -29
239 -138 -11 -97 4 -97 89 1 19 22 35 30 35 18 1 -12 37 -33 82 -46 87 -26
237 -109 374 -208 120 -86 125 -57 5 34 -114 87 -353 212 -406 212 -20 0 -31
9 -24 20 7 11 -2 20 -19 20 -17 0 -31 9 -31 19 0 11 -13 15 -30 8 -16 -6 -30
-2 -30 9 0 61 -462 103 -655 60 -51 -12 -65 -8 -65 15 0 30 -15 35 -100 32
-42 -2 -44 0 -13 13 35 15 35 19 5 49 -17 18 -32 42 -32 54 0 11 -35 57 -78
101 -77 80 -109 90 -262 82 l-50 -3 50 30 c246 148 802 214 1190 142 205 -39
601 -197 631 -253 11 -20 76 -75 144 -121 771 -519 1061 -1565 681 -2453 -73
-173 -84 -225 -59 -297 12 -37 -3 -52 -121 -118 -303 -168 -758 -438 -794
-471 -64 -60 -4 -121 192 -195 189 -71 211 -75 177 -34 -14 16 -19 39 -12 50
8 12 0 21 -17 21 -34 0 -132 91 -132 122 0 11 -9 15 -20 8 -11 -7 -20 -8 -20
-2 0 17 182 136 193 126 5 -5 31 10 56 33 73 67 111 96 111 84 0 -6 26 5 58
24 32 19 117 69 189 110 121 70 209 156 209 205 0 11 39 43 87 72 767 459 796
471 688 279 -37 -65 -62 -123 -56 -129 6 -6 1 -23 -12 -38 -12 -15 -28 -80
-35 -145 -19 -186 -21 -194 -45 -280 -12 -44 -26 -130 -31 -190 -5 -60 -14
-127 -19 -149 -44 -185 -52 -229 -53 -294 0 -40 -14 -87 -30 -104 -17 -16 -28
-40 -25 -53 3 -13 -6 -28 -20 -33 -14 -5 -25 0 -25 12 0 12 -28 22 -61 22 -41
0 -57 8 -47 23 8 13 3 19 -14 13 -15 -5 -56 2 -90 16 -113 47 -234 9 -335
-108 -130 -149 -153 -168 -181 -158 -41 16 -53 269 -14 301 16 13 132 154 259
313 126 160 296 360 377 445 80 85 146 165 146 178 0 27 17 41 -317 -255 -614
-542 -662 -579 -889 -694 -1469 -743 -3200 143 -3445 1763 -149 991 357 1973
1259 2444 274 143 512 212 922 267 100 14 450 -10 615 -40z m-1129 -620 c75
-49 113 -160 85 -251 -21 -73 -39 -91 -221 -224 -67 -49 -88 -77 -84 -109 4
-24 -3 -44 -15 -44 -11 0 -21 9 -21 21 0 70 -172 -98 -312 -305 -143 -213
-277 -274 -404 -185 -186 131 -102 387 244 746 321 333 571 454 728 351z
m-1414 -208 c33 0 19 -70 -29 -140 -76 -112 -137 -245 -146 -320 -5 -38 -17
-73 -28 -77 -10 -3 -19 -23 -19 -43 0 -21 -9 -43 -21 -51 -11 -7 -19 -27 -17
-46 2 -18 -5 -56 -17 -84 -64 -156 -105 -445 -105 -748 0 -312 13 -414 81
-651 45 -158 63 -236 66 -293 2 -24 9 -40 16 -35 7 4 19 -17 26 -47 8 -30 41
-98 73 -151 32 -53 54 -105 47 -115 -6 -10 -3 -19 7 -19 10 0 77 -83 149 -185
72 -102 154 -207 183 -233 28 -26 45 -58 38 -70 -7 -12 -5 -15 4 -7 8 7 66
-30 128 -83 808 -700 2029 -829 2883 -303 116 71 132 74 148 23 33 -101 -214
-285 -337 -251 -30 8 -34 6 -15 -7 20 -14 -7 -30 -100 -61 -519 -169 -1031
-197 -1537 -83 -203 46 -455 130 -429 144 11 5 8 7 -6 3 -65 -15 -476 219
-452 258 8 13 4 15 -11 6 -70 -43 -710 604 -668 677 7 12 5 15 -4 8 -57 -53
-333 554 -411 904 -50 222 -55 903 -9 1126 88 429 366 1003 466 965 15 -6 36
-11 46 -11z"/>
<path d="M2603 4360 c-3 -91 26 -142 43 -77 7 25 5 50 -4 56 -10 6 -22 29 -27
51 -7 25 -11 13 -12 -30z"/>
<path d="M3240 4182 c-101 -73 -518 -71 -564 4 -10 17 -30 12 -69 -18 -76 -56
-78 -79 -9 -107 80 -33 122 -102 122 -199 l0 -80 75 31 c221 93 649 -26 727
-202 22 -50 60 -101 84 -113 286 -148 287 -783 2 -1060 -85 -83 -91 -168 -17
-256 104 -124 283 -100 400 53 499 654 229 1628 -535 1925 -181 70 -154 67
-216 22z m191 -97 c-12 -13 144 -89 184 -91 14 0 25 -11 25 -24 0 -13 23 -35
50 -50 28 -15 50 -34 50 -43 0 -10 11 -17 25 -18 29 -1 185 -191 246 -297 186
-329 147 -999 -72 -1233 -22 -23 -39 -52 -39 -65 0 -13 -7 -23 -15 -21 -8 2
-31 -4 -50 -12 -125 -54 -225 79 -136 181 33 38 61 79 61 90 0 11 8 16 17 10
9 -6 17 1 18 14 1 13 20 76 43 139 59 160 58 680 0 644 -10 -6 -13 2 -7 17 6
16 -2 42 -19 59 -17 17 -25 36 -18 43 7 6 2 12 -11 12 -12 0 -21 7 -18 15 8
24 -51 96 -90 111 -20 7 -34 20 -31 28 7 29 -26 106 -47 106 -10 0 -15 8 -9
17 14 22 -58 89 -101 96 -17 2 -49 23 -70 46 -21 22 -61 41 -89 41 -28 0 -45
9 -38 20 7 11 -10 20 -39 20 -81 0 -63 59 28 94 44 18 76 37 72 44 -4 7 15 13
42 15 27 2 45 -2 38 -8z"/>
<path d="M2245 3970 c-116 -87 -255 -247 -304 -350 l-23 -50 40 47 c25 28 51
40 66 31 19 -11 18 -6 -1 18 -25 31 -18 43 21 37 8 -2 24 15 36 37 12 22 15
40 8 40 -8 0 2 18 22 40 19 21 45 33 56 26 11 -7 15 -3 8 8 -16 25 63 95 167
149 84 44 96 57 51 57 -15 0 -82 -40 -147 -90z"/>
<path d="M918 4031 c-10 -41 -9 -65 5 -93 37 -77 36 -169 -3 -315 -22 -84 -50
-198 -61 -253 -30 -149 -23 -636 13 -800 54 -253 55 -268 18 -351 -42 -92 -30
-116 39 -79 104 55 122 143 71 358 -87 373 -71 808 40 1131 52 152 51 251 -2
318 -41 53 -116 104 -120 84z"/>
<path d="M4020 4026 c0 -12 25 -43 55 -69 186 -159 334 -548 361 -950 19 -280
44 -283 44 -5 -1 154 -7 218 -20 198 -15 -24 -19 -20 -20 19 -1 135 -181 594
-243 618 -9 3 -17 17 -17 31 0 13 -36 59 -80 102 -44 43 -80 68 -80 56z"/>
<path d="M2641 3707 c-46 -59 -53 -139 -18 -216 38 -83 57 -59 59 74 0 69 4
141 8 160 9 47 0 44 -49 -18z"/>
<path d="M3396 3469 c-29 -16 -64 -60 -78 -97 l-25 -68 -71 30 c-40 17 -96 43
-125 59 -69 35 -180 34 -270 -3 -39 -16 -80 -24 -91 -18 -27 17 -113 -68 -161
-162 -46 -87 -55 -233 -27 -394 21 -116 7 -176 -57 -240 l-50 -50 42 -88 c118
-249 519 -341 842 -193 196 90 142 124 -85 55 -395 -121 -733 34 -620 283 31
70 39 131 40 316 0 360 208 527 480 387 81 -42 131 -31 237 54 164 129 176
215 19 129z"/>
<path d="M1967 2920 c-83 -33 -77 -73 9 -61 15 2 40 -7 55 -20 21 -18 29 -18
29 -1 0 28 107 12 117 -18 3 -11 13 -16 21 -11 9 5 15 -2 15 -15 0 -31 92
-177 133 -211 30 -25 -46 177 -96 258 -54 86 -180 121 -283 79z"/>
<path d="M4360 2544 c0 -19 -32 -101 -71 -182 -38 -81 -66 -152 -61 -156 10
-11 172 320 172 352 0 12 -9 22 -20 22 -11 0 -20 -16 -20 -36z"/>
<path d="M1640 2453 c0 -104 368 -611 412 -568 7 7 -19 43 -57 79 -96 91 -223
271 -256 361 -15 41 -34 75 -43 75 -9 0 -16 18 -16 40 0 22 -9 40 -20 40 -11
0 -20 -12 -20 -27z"/>
<path d="M1200 2307 c39 -17 80 -32 93 -33 13 0 18 -14 12 -31 -9 -23 -3 -26
26 -15 21 8 32 8 24 0 -8 -7 11 -46 41 -86 30 -40 68 -97 83 -127 15 -30 35
-55 44 -55 10 0 17 -12 17 -26 0 -15 31 -63 69 -108 38 -44 63 -88 55 -97 -8
-8 -4 -10 8 -3 12 7 52 -18 88 -56 36 -38 74 -64 83 -58 9 6 17 2 17 -8 0 -21
219 -179 262 -188 15 -3 33 -12 38 -19 110 -141 846 -244 1200 -169 72 15 137
24 145 19 8 -5 15 -1 15 9 0 17 156 75 185 68 8 -2 15 5 15 16 0 10 36 38 80
60 124 63 94 64 -45 1 -842 -381 -1791 -90 -2276 699 -124 202 -170 241 -285
239 l-64 -1 70 -31z"/>
<path d="M4518 2062 c-66 -52 -180 -214 -162 -231 8 -8 4 -11 -7 -8 -12 4 -93
-60 -180 -142 -151 -141 -81 -113 85 35 33 30 78 64 98 76 21 12 38 32 38 43
0 12 34 59 75 105 41 46 75 92 75 102 0 10 17 18 39 18 21 0 44 9 51 20 22 35
-63 22 -112 -18z"/>
<path d="M4220 2003 c0 -22 -13 -54 -30 -70 -51 -51 -33 -63 20 -13 53 49 63
89 30 110 -11 7 -20 -6 -20 -27z"/>
<path d="M2132 1808 c110 -74 141 -111 174 -209 33 -99 167 -155 480 -201 217
-32 674 9 674 61 0 8 -47 2 -105 -13 -324 -87 -970 10 -1012 152 -25 85 -129
202 -209 237 -86 38 -87 30 -2 -27z"/>
<path d="M3950 1721 c-7 -13 -62 -50 -123 -84 -60 -34 -104 -66 -99 -72 10
-10 149 68 221 124 21 17 33 36 27 42 -7 6 -18 2 -26 -10z"/>
<path d="M3522 1498 c-26 -10 -42 -25 -35 -32 7 -7 33 -3 58 10 25 12 63 26
85 31 31 6 29 9 -10 9 -27 1 -72 -7 -98 -18z"/>
</g>
</svg>
