<?xml version="1.0" standalone="no"?>
<!DOCTYPE svg PUBLIC "-//W3C//DTD SVG 20010904//EN"
 "http://www.w3.org/TR/2001/REC-SVG-20010904/DTD/svg10.dtd">
<svg version="1.0" xmlns="http://www.w3.org/2000/svg"
 width="300.000000pt" height="300.000000pt" viewBox="0 0 300.000000 300.000000"
 preserveAspectRatio="xMidYMid meet">
<metadata>
Created by potrace 1.10, written by Peter Selinger 2001-2011
</metadata>
<g transform="translate(0.000000,300.000000) scale(0.100000,-0.100000)"
fill="#000000" stroke="none">
<path d="M1345 2954 c-270 -39 -459 -108 -658 -240 -310 -207 -535 -540 -619
-914 -20 -90 -23 -132 -23 -300 0 -167 3 -210 23 -299 64 -285 185 -511 385
-718 206 -212 451 -348 748 -415 90 -20 131 -23 299 -23 167 0 210 4 300 23
132 30 265 79 400 148 141 72 235 114 253 114 53 0 101 -56 79 -91 -16 -26 -7
-56 19 -64 26 -9 159 70 159 94 0 23 -20 41 -46 41 -15 0 -30 13 -47 43 -26
44 -73 94 -82 86 -9 -10 77 -124 102 -135 18 -8 22 -13 12 -17 -8 -3 -3 -6 11
-7 l25 -1 -30 -25 c-36 -30 -85 -55 -94 -49 -4 2 -6 21 -4 42 2 30 -3 45 -23
68 -23 27 -31 30 -82 29 -56 0 -110 -22 -155 -62 -16 -14 -22 -14 -71 1 -58
19 -166 23 -166 7 0 -5 -7 -10 -15 -10 -8 0 -15 4 -15 9 0 5 -9 13 -20 16 -16
5 -20 15 -20 47 0 31 -3 38 -12 31 -7 -6 -40 -20 -73 -33 -166 -61 -401 -84
-581 -57 -426 66 -774 335 -950 736 -36 83 -40 85 -22 13 25 -104 136 -278
253 -401 166 -173 363 -287 603 -347 94 -24 127 -27 277 -28 188 -1 306 16
425 61 30 12 46 6 85 -31 32 -30 45 -36 65 -30 36 10 111 7 123 -5 13 -13
-127 -82 -246 -120 -424 -136 -865 -73 -1238 177 -275 185 -485 474 -573 789
-28 100 -32 120 -47 258 -29 250 25 535 147 778 68 136 162 266 171 239 8 -22
54 -72 77 -83 14 -7 12 -3 -7 11 -33 26 -57 70 -57 103 0 40 176 202 318 293
114 74 281 146 440 190 61 17 63 17 90 -3 15 -11 33 -31 39 -44 8 -15 13 -18
13 -8 0 8 -7 24 -15 35 -20 27 -19 31 15 38 120 24 380 11 514 -25 206 -56
382 -137 516 -236 141 -106 277 -251 371 -398 30 -46 119 -228 119 -242 0 -6
6 -23 14 -39 16 -31 51 -164 61 -229 22 -139 26 -353 9 -435 -4 -19 -7 -38 -6
-42 6 -27 -76 -304 -98 -333 -4 -5 -11 -21 -15 -34 -4 -14 -25 -53 -46 -88
-22 -35 -39 -66 -39 -69 0 -20 -153 -211 -205 -256 -12 -10 -37 -17 -60 -18
-34 0 -42 4 -52 27 -7 15 -13 46 -13 69 0 24 -6 49 -13 56 -15 15 -16 73 -2
87 6 5 26 18 45 28 25 14 36 29 41 53 4 19 15 39 23 46 15 11 15 12 -1 18 -22
9 -46 -21 -39 -48 6 -25 -10 -46 -36 -46 -34 0 -67 -50 -68 -101 0 -33 5 -49
15 -53 11 -4 15 -21 16 -63 1 -93 4 -97 85 -95 l69 2 68 73 c169 178 290 418
349 691 32 146 32 426 0 573 -63 290 -197 538 -402 743 -204 204 -454 340
-738 401 -94 20 -370 34 -447 23z"/>
<path d="M1287 2733 c-11 -13 -29 -29 -40 -34 -18 -8 -16 -9 11 -4 128 19 229
26 306 21 313 -24 588 -147 796 -356 156 -158 266 -348 320 -553 10 -40 19
-62 19 -50 2 62 -101 313 -173 423 -78 119 -242 283 -367 368 -193 129 -460
200 -711 188 -103 -5 -129 -3 -135 8 -6 11 -12 9 -26 -11z"/>
<path d="M1120 2666 c-188 -64 -328 -148 -472 -283 -70 -67 -93 -83 -118 -83
-26 0 -29 -2 -19 -17 8 -15 -1 -35 -49 -108 -75 -115 -156 -331 -177 -475 -4
-24 -9 -48 -11 -52 -2 -3 0 -9 5 -12 4 -3 12 18 15 47 49 370 308 726 656 902
82 41 227 95 256 95 8 0 14 5 14 10 0 6 -1 10 -2 9 -2 0 -46 -15 -98 -33z"/>
<path d="M986 2391 c-139 -74 -294 -229 -385 -386 -60 -102 3 -230 112 -229
23 0 54 4 69 7 29 8 71 -5 94 -27 28 -28 35 -67 24 -120 -11 -53 -15 -214 -6
-224 3 -3 6 29 6 71 0 42 5 108 12 145 9 56 9 75 -2 102 -14 33 -62 70 -92 70
-22 0 -24 19 -2 27 8 3 37 38 64 77 55 81 130 156 210 212 30 21 66 49 80 62
14 14 45 33 70 43 38 16 40 18 13 13 -33 -6 -33 -5 -33 33 0 79 -54 142 -131
150 -36 4 -55 -1 -103 -26z m145 -6 c37 -19 69 -70 69 -108 0 -48 -31 -86
-115 -142 -98 -66 -157 -125 -227 -230 -66 -98 -108 -124 -168 -106 -54 16
-90 62 -90 113 0 99 163 305 332 419 103 70 145 81 199 54z"/>
<path d="M2015 2400 c4 -6 41 -36 83 -67 243 -179 389 -433 424 -735 18 -163
-8 -330 -79 -498 -44 -106 -52 -158 -26 -186 10 -11 15 -15 11 -9 -19 31 -19
84 1 123 90 176 127 401 101 608 -30 240 -165 494 -346 648 -42 36 -81 66 -86
66 -17 0 -7 27 15 38 20 10 19 10 -10 5 -18 -3 -46 0 -63 5 -18 7 -28 7 -25 2z"/>
<path d="M1615 2100 c-46 -28 -214 -33 -262 -9 -33 17 -39 17 -60 4 -30 -20
-29 -41 2 -49 32 -8 65 -61 65 -105 0 -27 3 -32 18 -26 75 29 205 22 292 -16
48 -22 100 -65 100 -85 0 -6 9 -22 20 -35 15 -18 14 -11 -7 31 -48 95 -140
135 -305 133 l-97 -1 -6 30 c-4 16 -20 45 -36 63 -34 38 -25 50 26 36 19 -5
78 -7 132 -4 79 4 106 10 138 29 22 13 33 23 25 23 -8 0 -28 -9 -45 -19z"/>
<path d="M464 1994 c35 -34 37 -40 33 -83 -3 -25 -18 -89 -33 -141 -24 -86
-27 -111 -28 -265 -1 -148 2 -182 23 -263 26 -103 21 -135 -27 -172 -27 -22
-22 -26 9 -10 24 13 49 61 49 94 0 14 -9 62 -20 108 -43 180 -34 379 25 567
23 73 26 90 16 122 -6 21 -23 47 -38 58 -43 34 -49 24 -9 -15z"/>
<path d="M2707 1675 c3 -33 7 -62 9 -64 8 -8 2 74 -7 99 -5 16 -6 4 -2 -35z"/>
<path d="M1316 1657 c-40 -52 -56 -101 -55 -164 l2 -58 6 70 c7 71 22 105 70
158 13 15 20 27 13 27 -6 0 -22 -15 -36 -33z"/>
<path d="M268 1563 c-1 -27 0 -77 3 -113 5 -55 6 -48 7 48 2 114 -3 150 -10
65z"/>
<path d="M2722 1515 c-2 -83 -10 -156 -26 -260 -5 -32 -4 -36 4 -17 16 37 32
199 28 287 l-4 80 -2 -90z"/>
<path d="M296 1255 c4 -44 33 -149 40 -143 2 3 -5 36 -15 74 -11 38 -21 78
-24 89 -3 11 -3 2 -1 -20z"/>
<path d="M2661 1130 c-13 -44 -45 -123 -72 -175 -26 -52 -44 -95 -40 -95 11 0
98 189 122 265 12 39 24 73 26 78 2 4 1 7 -4 7 -4 0 -19 -36 -32 -80z"/>
<path d="M2185 494 c-11 -9 -44 -29 -72 -46 -29 -16 -53 -34 -53 -39 0 -13
128 -11 136 3 7 11 17 98 12 98 -2 0 -12 -8 -23 -16z"/>
</g>
</svg>
